<?xml version="1.0" encoding="iso-8859-1" standalone="no"?> 
<?xml-stylesheet href="recursivite.css" type="text/css"?> 
<svg xmlns="http://www.w3.org/2000/svg" xmlns:xlink="http://www.w3.org/1999/xlink" width="307.40222pt" height="145.09923pt" viewBox="-171.48402 -136.5683 307.40222 145.09923 "> 
<g transform="translate(0, 8.53093 ) scale(1,-1) translate(0,136.5683 )"> 
                                                   <g>
 <g stroke="rgb(0.0%,0.0%,0.0%)">
 <g fill="rgb(0.0%,0.0%,0.0%)">
 <g stroke-width="0.4pt">
 <g>
 <g>
 <path d=" M  25.02032 8.33093 L  -25.02032 8.33093 C  -27.22949 8.33093 -29.02032 6.5401 -29.02032 4.33093 L  -29.02032 -4.33093 C  -29.02032 -6.5401 -27.22949 -8.33093 -25.02032 -8.33093 L  25.02032 -8.33093 C  27.22949 -8.33093 29.02032 -6.5401 29.02032 -4.33093 L  29.02032 4.33093 C  29.02032 6.5401 27.22949 8.33093 25.02032 8.33093 Z M  -29.02032 -8.33093  " style="fill:none"/>
 <g>
 <g transform="matrix(1.0,0.0,0.0,1.0,-25.68817,-2.49939)">
 <g fill="rgb(0.0%,0.0%,0.0%)">
 <text style="stroke:none" transform="scale(1,-1) translate(25.68817,0)" text-anchor="middle"  font-size="10"> 
fibonacci(4)</text> 
</g>
 </g>
 </g>
 </g>
 <g>
 <g>
 <path d=" M  -46.11154 -34.34819 L  -96.15219 -34.34819 C  -98.36136 -34.34819 -100.15219 -36.13902 -100.15219 -38.34819 L  -100.15219 -47.01006 C  -100.15219 -49.21922 -98.36136 -51.01006 -96.15219 -51.01006 L  -46.11154 -51.01006 C  -43.90237 -51.01006 -42.11154 -49.21922 -42.11154 -47.01006 L  -42.11154 -38.34819 C  -42.11154 -36.13902 -43.90237 -34.34819 -46.11154 -34.34819 Z M  -100.15219 -51.01006  " style="fill:none"/>
 <g>
 <g transform="matrix(1.0,0.0,0.0,1.0,-96.82004,-45.17851)">
 <g fill="rgb(0.0%,0.0%,0.0%)">
 <text style="stroke:none" transform="scale(1,-1) translate(25.68817,0)" text-anchor="middle"  font-size="10"> 
fibonacci(3)</text> 
</g>
 </g>
 </g>
 </g>
 <path d=" M  -14.21825 -8.53093 L  -56.91882 -34.1482  " style="fill:none"/>
 <g>
 <g>
 <path d=" M  -81.67746 -77.02731 L  -131.71811 -77.02731 C  -133.92728 -77.02731 -135.71811 -78.81815 -135.71811 -81.02731 L  -135.71811 -89.68918 C  -135.71811 -91.89835 -133.92728 -93.68918 -131.71811 -93.68918 L  -81.67746 -93.68918 C  -79.46829 -93.68918 -77.67746 -91.89835 -77.67746 -89.68918 L  -77.67746 -81.02731 C  -77.67746 -78.81815 -79.46829 -77.02731 -81.67746 -77.02731 Z M  -135.71811 -93.68918  " style="fill:none"/>
 <g>
 <g transform="matrix(1.0,0.0,0.0,1.0,-132.38596,-87.85764)">
 <g fill="rgb(0.0%,0.0%,0.0%)">
 <text style="stroke:none" transform="scale(1,-1) translate(25.68817,0)" text-anchor="middle"  font-size="10"> 
fibonacci(2)</text> 
</g>
 </g>
 </g>
 </g>
 <path d=" M  -78.24092 -51.21005 L  -99.59132 -76.82732  " style="fill:none"/>
 <g>
 <g>
 <path d=" M  -117.24338 -119.70644 L  -167.28403 -119.70644 C  -169.4932 -119.70644 -171.28403 -121.49727 -171.28403 -123.70644 L  -171.28403 -132.3683 C  -171.28403 -134.57747 -169.4932 -136.3683 -167.28403 -136.3683 L  -117.24338 -136.3683 C  -115.03421 -136.3683 -113.24338 -134.57747 -113.24338 -132.3683 L  -113.24338 -123.70644 C  -113.24338 -121.49727 -115.03421 -119.70644 -117.24338 -119.70644 Z M  -171.28403 -136.3683  " style="fill:none"/>
 <g>
 <g transform="matrix(1.0,0.0,0.0,1.0,-167.95187,-130.53676)">
 <g fill="rgb(0.0%,0.0%,0.0%)">
 <text style="stroke:none" transform="scale(1,-1) translate(25.68817,0)" text-anchor="middle"  font-size="10"> 
fibonacci(1)</text> 
</g>
 </g>
 </g>
 </g>
 <path d=" M  -113.80684 -93.88918 L  -135.15724 -119.50644  " style="fill:none"/>
 </g>
 <g>
 <g>
 <path d=" M  -46.1115 -119.70644 L  -96.15215 -119.70644 C  -98.36131 -119.70644 -100.15215 -121.49727 -100.15215 -123.70644 L  -100.15215 -132.3683 C  -100.15215 -134.57747 -98.36131 -136.3683 -96.15215 -136.3683 L  -46.1115 -136.3683 C  -43.90233 -136.3683 -42.1115 -134.57747 -42.1115 -132.3683 L  -42.1115 -123.70644 C  -42.1115 -121.49727 -43.90233 -119.70644 -46.1115 -119.70644 Z M  -100.15215 -136.3683  " style="fill:none"/>
 <g>
 <g transform="matrix(1.0,0.0,0.0,1.0,-96.81999,-130.53676)">
 <g fill="rgb(0.0%,0.0%,0.0%)">
 <text style="stroke:none" transform="scale(1,-1) translate(25.68817,0)" text-anchor="middle"  font-size="10"> 
fibonacci(0)</text> 
</g>
 </g>
 </g>
 </g>
 <path d=" M  -99.58873 -93.88918 L  -78.23828 -119.50644  " style="fill:none"/>
 </g>
 </g>
 <g>
 <g>
 <path d=" M  -10.54558 -77.02731 L  -60.58623 -77.02731 C  -62.7954 -77.02731 -64.58623 -78.81815 -64.58623 -81.02731 L  -64.58623 -89.68918 C  -64.58623 -91.89835 -62.7954 -93.68918 -60.58623 -93.68918 L  -10.54558 -93.68918 C  -8.33641 -93.68918 -6.54558 -91.89835 -6.54558 -89.68918 L  -6.54558 -81.02731 C  -6.54558 -78.81815 -8.33641 -77.02731 -10.54558 -77.02731 Z M  -64.58623 -93.68918  " style="fill:none"/>
 <g>
 <g transform="matrix(1.0,0.0,0.0,1.0,-61.25407,-87.85764)">
 <g fill="rgb(0.0%,0.0%,0.0%)">
 <text style="stroke:none" transform="scale(1,-1) translate(25.68817,0)" text-anchor="middle"  font-size="10"> 
fibonacci(1)</text> 
</g>
 </g>
 </g>
 </g>
 <path d=" M  -64.02281 -51.21005 L  -42.67236 -76.82732  " style="fill:none"/>
 </g>
 </g>
 <g>
 <g>
 <path d=" M  96.15224 -34.34819 L  46.11159 -34.34819 C  43.90242 -34.34819 42.11159 -36.13902 42.11159 -38.34819 L  42.11159 -47.01006 C  42.11159 -49.21922 43.90242 -51.01006 46.11159 -51.01006 L  96.15224 -51.01006 C  98.3614 -51.01006 100.15224 -49.21922 100.15224 -47.01006 L  100.15224 -38.34819 C  100.15224 -36.13902 98.3614 -34.34819 96.15224 -34.34819 Z M  42.11159 -51.01006  " style="fill:none"/>
 <g>
 <g transform="matrix(1.0,0.0,0.0,1.0,45.44374,-45.17851)">
 <g fill="rgb(0.0%,0.0%,0.0%)">
 <text style="stroke:none" transform="scale(1,-1) translate(25.68817,0)" text-anchor="middle"  font-size="10"> 
fibonacci(2)</text> 
</g>
 </g>
 </g>
 </g>
 <path d=" M  14.21825 -8.53093 L  56.91887 -34.1482  " style="fill:none"/>
 <g>
 <g>
 <path d=" M  60.58632 -77.02731 L  10.54567 -77.02731 C  8.3365 -77.02731 6.54567 -78.81815 6.54567 -81.02731 L  6.54567 -89.68918 C  6.54567 -91.89835 8.3365 -93.68918 10.54567 -93.68918 L  60.58632 -93.68918 C  62.79549 -93.68918 64.58632 -91.89835 64.58632 -89.68918 L  64.58632 -81.02731 C  64.58632 -78.81815 62.79549 -77.02731 60.58632 -77.02731 Z M  6.54567 -93.68918  " style="fill:none"/>
 <g>
 <g transform="matrix(1.0,0.0,0.0,1.0,9.87782,-87.85764)">
 <g fill="rgb(0.0%,0.0%,0.0%)">
 <text style="stroke:none" transform="scale(1,-1) translate(25.68817,0)" text-anchor="middle"  font-size="10"> 
fibonacci(1)</text> 
</g>
 </g>
 </g>
 </g>
 <path d=" M  64.02286 -51.21005 L  42.67245 -76.82732  " style="fill:none"/>
 </g>
 <g>
 <g>
 <path d=" M  131.7182 -77.02731 L  81.67755 -77.02731 C  79.46838 -77.02731 77.67755 -78.81815 77.67755 -81.02731 L  77.67755 -89.68918 C  77.67755 -91.89835 79.46838 -93.68918 81.67755 -93.68918 L  131.7182 -93.68918 C  133.92737 -93.68918 135.7182 -91.89835 135.7182 -89.68918 L  135.7182 -81.02731 C  135.7182 -78.81815 133.92737 -77.02731 131.7182 -77.02731 Z M  77.67755 -93.68918  " style="fill:none"/>
 <g>
 <g transform="matrix(1.0,0.0,0.0,1.0,81.0097,-87.85764)">
 <g fill="rgb(0.0%,0.0%,0.0%)">
 <text style="stroke:none" transform="scale(1,-1) translate(25.68817,0)" text-anchor="middle"  font-size="10"> 
fibonacci(0)</text> 
</g>
 </g>
 </g>
 </g>
 <path d=" M  78.24097 -51.21005 L  99.59142 -76.82732  " style="fill:none"/>
 </g>
 </g>
 </g>
 </g>
 </g>
 </g>
 </g>
 
                                                                                            </g> 
</svg> 
